<?xml version="1.0" encoding="utf-8"?>
<!-- Generator: Adobe Illustrator 17.1.0, SVG Export Plug-In . SVG Version: 6.00 Build 0)  -->
<!DOCTYPE svg PUBLIC "-//W3C//DTD SVG 1.1//EN" "http://www.w3.org/Graphics/SVG/1.1/DTD/svg11.dtd">
<svg version="1.1" id="Layer_1" xmlns="http://www.w3.org/2000/svg" xmlns:xlink="http://www.w3.org/1999/xlink" x="0px" y="0px"
	 viewBox="0 0 500 500" enable-background="new 0 0 500 500" xml:space="preserve">
<g>
	<g>
		<path fill="#6C929E" d="M490.1,249.1c0,132.9-107.8,240.7-240.7,240.7S14.9,382.1,14.9,249.1c0-66.5-10.4-157.7,33.2-201.3
			s134.8-33.2,201.3-33.2C382.3,14.6,490.1,116.2,490.1,249.1z"/>
		<path fill="#354A4C" d="M497,249.3c0,0,0,1.5-0.1,4.4c-0.1,3-0.1,7.1-0.7,13.1c-0.9,11.8-2.9,28.7-9,49.6
			c-2.9,10.4-7.1,21.7-12.4,33.6c-5.4,11.9-12.1,24.4-20.5,36.9c-16.8,25-40.5,50.3-71.8,70.6c-15.6,10.1-33,19-51.9,25.6
			c-18.9,6.7-39.3,11.4-60.6,13.1c-2.7,0.2-5.3,0.4-8,0.6c-2.7,0.1-5.4,0.2-8.1,0.3l-4.1,0.1l-4.2-0.1c-2.6,0-5.3-0.1-8-0.2
			c-11.1-0.6-22.3-1.5-33.3-3.6c-5.6-0.8-11-2.3-16.6-3.5c-5.5-1.6-11-2.9-16.5-4.8c-11-3.5-21.7-8.1-32.2-13.3
			c-21-10.5-40.7-24.4-58.1-41.2c-8.8-8.3-16.9-17.5-24.3-27.2c-3.8-4.8-7.2-9.9-10.7-15c-3.3-5.2-6.6-10.4-9.5-15.8
			c-6-10.8-11.3-22.1-15.6-33.7c-4.3-11.7-8-23.6-10.5-35.9c-2.6-12.2-4.5-24.6-5.3-37.2c-0.3-3.1-0.4-6.3-0.5-9.4
			c-0.1-3.1-0.2-6.4-0.3-9.3c0-6.1-0.2-11.9-0.3-17.9c-0.6-24-1.5-48.3-0.7-72.9c0.9-24.5,3.2-49.5,11.4-73.8
			c4.1-12.1,9.9-24,18.2-34.5c2-2.6,4.3-5.1,6.6-7.5l0.4-0.5c0.1-0.1,0.8-0.8,0.7-0.7l0.8-0.7l1.6-1.5l1.6-1.5l2-1.7
			c2.8-2.3,5.4-4.2,8.1-6c2.8-1.7,5.5-3.5,8.4-5c11.4-6.2,23.3-10.1,35.2-13c11.9-2.8,23.7-4.5,35.3-5.5c23.3-2.1,45.9-1.9,67.8-1.4
			c10.9,0.3,21.6,0.6,32.3,1c5.3,0.1,10.7,0.2,15.9,0.3c2.6,0.1,5.2,0.2,7.9,0.3l3.9,0.1c1.3,0.1,2.7,0.2,4.1,0.3
			c43.4,2.9,82.8,16.5,115,36c32.2,19.6,56.8,44.6,74.1,69.6c8.7,12.5,15.5,25.1,21,37c5.5,12,9.5,23.4,12.3,33.9
			c5.9,21,7.7,38.1,8.4,49.7c0.5,5.8,0.4,10.3,0.5,13.3c0.1,3,0.1,4.6,0.1,4.6L497,249.3z M483.2,249.1c0,0-0.1-1.5-0.1-4.3
			c-0.1-2.8-0.1-7.1-0.7-12.5c-0.8-10.9-2.8-27-8.7-46.6c-2.8-9.8-6.8-20.4-12.1-31.5c-5.3-11.1-11.9-22.7-20.1-34.2
			c-16.5-23.1-40-45.7-70.2-63.2c-15-8.8-31.8-16-49.7-21.4c-17.8-5.5-37.3-8.8-56.8-9.9c-1.2-0.1-2.4-0.2-3.7-0.2l-3.9-0.1
			c-2.6,0-5.2-0.1-7.9-0.1c-5.2,0-10.5,0-15.8,0c-10.6-0.1-21.4-0.3-32.3-0.4c-21.6-0.3-43.6-0.4-65.4,1.7
			c-21.6,2.1-43.6,6.3-61.9,16.3c-2.3,1.2-4.5,2.6-6.6,4c-2.1,1.5-4.2,3-5.9,4.4L60,52l-1.6,1.5L56.8,55L56,55.8
			c-0.4,0.4,0.1-0.1-0.1,0.1l-0.3,0.3c-1.7,1.8-3.5,3.7-5,5.7c-6.4,8-11.2,17.6-14.8,27.9c-7.2,20.7-9.7,44-10.7,67.4
			c-1,23.5-0.2,47.4,0.2,71.7c0.1,6,0.2,12.3,0.2,18.3c0,3.1,0.1,5.9,0.1,8.8c0,2.9,0.1,5.8,0.3,8.7c0.5,11.6,2.2,23,4.3,34.3
			c2.1,11.3,5.4,22.4,9.2,33.2c3.8,10.8,8.5,21.3,13.9,31.4c21.4,40.3,54.8,73.2,93.5,93.4c9.7,5,19.6,9.5,29.7,12.9
			c5,1.9,10.2,3.2,15.3,4.8c5.2,1.2,10.3,2.7,15.5,3.5c10.3,2.2,20.7,3.2,30.8,3.9c2.7,0.1,5.3,0.2,8,0.3l3.8,0.1l3.8-0.1
			c2.5,0,5.1-0.1,7.6-0.1c2.5-0.2,5-0.3,7.5-0.5c20.1-1.4,39.3-5.6,57.3-11.7c18-6,34.5-14.2,49.4-23.6c14.9-9.4,28.1-20,39.6-31.3
			c11.4-11.3,21-23.2,29.1-35.1c8-11.9,14.3-23.8,19.3-35.1c5-11.3,8.8-22.1,11.4-32c5.5-19.8,7.2-36.1,7.8-46.8
			c0.5-5.3,0.4-9.8,0.5-12.7c0.1-2.9,0.1-4.4,0.1-4.4L483.2,249.1z"/>
	</g>
	<g>
		<path fill="#9DB6BE" d="M268.9,81.4c105.7,0,191.4,81.5,191.4,187.2S374.6,460,268.9,460S81.7,374.3,81.7,268.6
			c0-52.8-3.5-121.4,31.2-156.1C147.5,78,216,81.4,268.9,81.4z"/>
		<path fill="#4B676D" d="M269.1,71.7c0,0,1.2,0.1,3.5,0.1c2.4,0.1,5.6,0.1,10.5,0.6c9.6,0.8,23.1,2.5,40,7.4
			c8.4,2.3,17.5,5.7,27.1,10c9.6,4.4,19.6,9.8,29.6,16.6c20,13.6,39.9,33,55.4,58.2c3.9,6.2,7.4,12.9,10.6,19.8
			c3.1,7,6.1,14.2,8.4,21.8c2.5,7.5,4.3,15.3,5.9,23.3c1.3,8,2.5,16.2,2.8,24.5c0.6,8.3,0.3,16.9-0.2,25.2
			c-0.7,8.6-1.8,17.1-3.6,25.7c-1.7,8.5-4,17.1-7,25.5c-2.9,8.4-6.5,16.6-10.6,24.7c-16.3,32.3-42.5,60.8-75.1,80.2
			c-8.1,4.9-16.7,9.1-25.6,12.7c-8.8,3.6-18,6.6-27.3,8.9c-9.3,2.4-18.9,3.9-28.5,4.8c-9.6,1-19.4,1-29,0.6
			c-38.9-1.7-77-16.1-107.4-39.9c-30.5-23.7-53-56.6-64.8-91.9c-3-8.8-5.4-17.7-7-26.7c-1.8-9-2.8-18-3.4-27
			c-0.5-9.1-0.5-17.4-0.8-25.9c-0.2-8.4-0.3-16.8-0.4-25.1c0-16.6,0.5-33,2.7-49c2.1-15.9,5.8-31.6,12.3-46.1
			c1.9-3.5,3.6-7.1,5.6-10.5c1.1-1.7,2.2-3.3,3.3-4.9l1.7-2.4c0.6-0.8,1.3-1.5,1.9-2.3c1.3-1.5,2.6-3,3.8-4.5l1-1.1l0.2-0.3
			c-0.4,0.3,0.8-0.8,0.7-0.7l0.5-0.4l1.9-1.7c1.3-1.1,2.5-2.2,3.7-3.3c0.5-0.5,1.4-1.1,2.2-1.7l2.4-1.7c1.6-1.1,3.3-2.3,4.9-3.4
			c1.6-1,3.2-1.8,4.7-2.6c1.6-0.8,3.1-1.7,4.7-2.5c1.6-0.7,3.2-1.4,4.7-2.1c1.6-0.7,3.1-1.3,4.7-2c1.6-0.6,3.1-1.1,4.7-1.6
			c3.1-1,6.2-2.1,9.2-2.8c12.1-3.2,23.4-4.8,33.9-5.8c10.4-1,19.9-1.2,28.4-1.4c17-0.2,30.2,0.2,39.2,0.4c8.9,0.2,13.7,0.3,13.7,0.3
			L269.1,71.7z M268.9,91.1c0,0-4.8,0.1-13.8,0.2c-9,0.1-22,0.2-38.4,1c-8.2,0.5-17.2,1-26.8,2.3c-9.6,1.1-19.9,2.7-30.3,5.7
			c-2.7,0.6-5.2,1.6-7.8,2.4c-1.3,0.4-2.6,0.8-3.9,1.3c-1.3,0.5-2.5,1.1-3.8,1.6c-1.3,0.5-2.6,1.1-3.9,1.6c-1.2,0.7-2.4,1.3-3.7,2
			c-1.2,0.7-2.5,1.3-3.7,2c-1,0.7-2.1,1.4-3.2,2.1l-1.6,1.1c-0.5,0.3-1.1,0.6-1.7,1.3c-1.2,1.1-2.5,2.2-3.8,3.3l-1.9,1.7l-0.5,0.4
			c-0.2,0.2,0.8-0.8,0.3-0.3l-0.2,0.2l-0.7,0.8c-1,1.1-1.9,2.1-2.9,3.2c-0.5,0.5-1,1-1.5,1.6l-1.3,1.8c-0.9,1.2-1.7,2.4-2.6,3.7
			c-1.7,2.6-3.1,5.4-4.7,8.1c-5.6,11.5-9.3,25.2-11.6,39.7c-2.3,14.6-3.5,30.2-4.1,46.3c-0.3,8.1-0.4,16.3-0.5,24.8
			c-0.1,8.4-0.3,17.2-0.2,25.3c0.2,8.3,0.7,16.6,2,25c1.2,8.4,3,16.7,5.4,25c9.5,33.1,29,64.9,57,88.6c6.9,6,14.4,11.4,22.3,16.2
			c7.9,4.9,16.1,9.1,24.8,12.6c17.2,7.1,35.7,11.6,54.4,13.1c37.6,3,76.1-5.5,108.3-24.4c16.1-9.3,30.8-21,43.2-34.3
			c12.4-13.4,22.8-28.4,30.7-44.3c3.9-8,7.3-16.1,9.9-24.4c2.8-8.3,4.8-16.7,6.3-25c0.4-2.1,0.7-4.2,1.1-6.3
			c0.2-2.1,0.5-4.2,0.7-6.3c0.6-4.2,0.6-8.3,0.9-12.4c0.2-8.4,0.1-16.5-0.7-24.6c-0.6-8.1-2.1-15.9-3.7-23.5
			c-1.9-7.6-3.9-15-6.7-22.1c-5.2-14.2-12.1-27.1-20-38.5c-15.8-23-35.4-39.9-54.4-51.6c-19.1-11.7-37.6-18.3-53.1-22.1
			c-15.4-3.9-28.2-5-36.4-5.3c-4-0.3-7.7-0.2-9.9-0.2c-2.3,0-3.5,0-3.5,0L268.9,91.1z"/>
	</g>
	<g>
		<path fill="#CEDBDF" d="M288.4,148.2c78.4,0,142,61.5,142,140s-63.6,142-142,142s-140-63.6-140-142c0-39.2,3.5-85.1,29.2-110.8
			C203.3,151.7,249.2,148.2,288.4,148.2z"/>
		<path fill="#4B676D" d="M288.9,138.7c0,0,3.5,0.3,10.1,0.7c1.7,0.2,3.4,0.1,5.6,0.5c2.2,0.4,4.6,0.8,7.2,1.2
			c2.6,0.5,5.4,0.8,8.2,1.5c2.8,0.8,5.8,1.6,8.9,2.5c12.4,3.8,27.3,9.8,42.1,20.2c14.7,10.3,29.6,24.7,40.9,43.6
			c11.3,18.7,19.3,41.6,20.8,66.3c0.1,3.1,0.2,6.2,0.2,9.3c0,1.6,0.2,3,0,4.8l-0.3,4.6c-0.3,3.1-0.4,6.2-0.8,9.4
			c-0.5,3.2-1.1,6.4-1.6,9.6c-0.3,1.6-0.5,3.2-0.9,4.8l-1.3,4.7c-0.9,3.1-1.6,6.3-2.7,9.4c-2.4,6.1-4.5,12.4-7.6,18.3
			c-2.7,6.1-6.4,11.8-9.9,17.6c-1.9,2.8-4,5.5-6.1,8.2c-1,1.3-2,2.8-3.1,4.1l-3.5,3.8l-3.4,3.8l-1.7,1.9c-0.6,0.6-1.3,1.2-1.9,1.8
			c-2.5,2.3-5.1,4.7-7.6,7c-2.6,2.2-5.5,4.2-8.3,6.4c-1.4,1-2.7,2.2-4.2,3.1l-4.5,2.8l-4.5,2.8c-0.8,0.5-1.5,0.9-2.3,1.4l-2.4,1.2
			c-3.2,1.6-6.3,3.1-9.5,4.7c-6.6,2.5-13.1,5.5-20.1,7.1c-6.8,2.2-13.9,3.1-21,4.3c-3.6,0.4-7.1,0.5-10.7,0.8
			c-1.9,0.1-3.4,0.3-5.5,0.3l-5.3-0.1l-5.3-0.1c-1.8-0.1-3.5,0-5.3-0.3l-10.8-1.4c-3.6-0.5-7.1-1.5-10.6-2.3l-5.3-1.3l-5.1-1.8
			l-5.1-1.8c-1.7-0.6-3.4-1.1-5-1.9l-9.9-4.5c-3.2-1.6-6.3-3.6-9.4-5.3c-3.2-1.7-6.1-3.8-9-5.9c-6-4-11.2-8.9-16.6-13.6
			c-4.9-5.2-10-10.2-14.1-16c-4.6-5.5-8-11.6-11.9-17.6c-3.1-6.3-6.6-12.4-8.9-19l-1.9-4.9l-0.9-2.4l-0.7-2.5
			c-0.9-3.3-1.9-6.6-2.8-9.9c-1-3.3-1.3-6.7-2-10c-0.5-3.4-1.3-6.7-1.4-10c-0.2-3.4-0.5-6.7-0.7-10c0-0.8-0.1-1.6-0.2-2.5l0-2.3
			l-0.1-4.7c0-6.4,0-12.7,0.2-18.9c0.8-24.8,4.4-49.2,14.8-70.5c2.6-5.3,5.8-10.3,9.3-15c1.8-2.3,3.8-4.4,5.7-6.6l0.2-0.2
			c0.2-0.2-0.3,0.2,0.6-0.6l0.3-0.3l0.7-0.6l1.3-1.2c0.9-0.8,1.8-1.7,2.7-2.5c2.3-1.8,4.7-3.6,7-5.2c2.3-1.4,4.5-2.8,6.7-4.1
			c2.3-1.2,4.5-2.3,6.8-3.4c2.3-0.9,4.5-1.8,6.7-2.7c17.8-6.5,33.6-8.3,46.3-9.4c12.8-1,22.7-1,29.4-0.9c6.7,0.1,10.3,0.1,10.3,0.1
			L288.9,138.7z M288.4,157.7c0,0-3.5,0.1-9.9,0.3c-6.5,0.3-15.9,0.7-27.7,2.2c-11.7,1.6-25.8,4-40.3,9.6c-1.8,0.8-3.5,1.5-5.3,2.3
			c-1.7,0.9-3.5,1.8-5.3,2.7c-1.7,1-3.4,2.1-5.1,3.1c-1.5,1.1-2.9,2.2-4.4,3.2c-1.6,1.5-3.3,2.9-5,4.4c-1.4,1.6-2.9,3-4.2,4.7
			c-2.6,3.4-5.2,7-7.4,11.1c-4.4,8.2-7.8,17.8-10.2,28.2c-2.4,10.4-3.9,21.7-4.9,33.4c-0.5,5.9-0.8,11.9-1.1,17.9l-0.1,4.7l-0.1,2.3
			c0,0.7,0,1.5,0,2.2c0.1,3,0.1,5.9,0.2,8.9c-0.1,3,0.5,6,0.8,9c0.4,3,0.5,6.1,1.2,9c0.6,3,1.3,6,2,9l0.5,2.3l0.7,2.2l1.4,4.5
			c1.6,6.1,4.5,11.7,7,17.6c3.1,5.5,5.9,11.4,9.8,16.6c3.4,5.5,7.9,10.3,12.1,15.5c4.7,4.6,9.3,9.5,14.6,13.4c2.6,2.1,5.2,4.3,8,6
			c2.8,1.8,5.6,3.8,8.5,5.5l9,4.7c1.5,0.9,3.1,1.5,4.6,2.1l4.7,1.9l4.8,1.9l4.9,1.4c3.3,0.9,6.6,2.1,9.9,2.6l10,1.8
			c1.6,0.4,3.4,0.4,5.2,0.6l5.3,0.4l5.3,0.4c1.5,0.1,3.4-0.1,5-0.1c3.4-0.2,6.9-0.2,10.3-0.4c6.8-1,13.7-1.6,20.4-3.5
			c6.8-1.3,13.2-4,19.7-6.2l9.3-4.4l2.3-1.1c0.8-0.4,1.5-0.9,2.2-1.3l4.4-2.6l4.4-2.6c1.5-0.9,2.8-2,4.2-3c2.7-2.1,5.5-4,8.2-6.1
			c2.5-2.3,5-4.5,7.6-6.8c0.6-0.6,1.3-1.1,1.9-1.7l1.7-1.9l3.4-3.7l3.4-3.7c1.1-1.3,2-2.7,3-4c2-2.7,4-5.3,5.9-8.1
			c3.4-5.7,7-11.2,9.6-17.2c3.1-5.8,4.9-12,7.1-18c0.9-3.1,1.5-6.2,2.3-9.3l1.1-4.6c0.3-1.5,0.5-3.1,0.7-4.6
			c0.4-3.1,0.9-6.1,1.3-9.2c0.2-3.1,0.2-6.3,0.3-9.3l0.1-4.6c0.1-1.3-0.2-3-0.2-4.4c-0.2-3-0.5-6-0.7-8.9c-0.1-1.5-0.3-2.9-0.6-4.4
			l-0.8-4.3c-0.3-1.4-0.5-2.9-0.8-4.3c-0.2-1.4-0.5-2.8-1-4.2c-1.7-5.5-2.9-11-5.3-16c-1-2.6-2.1-5.1-3.1-7.6
			c-1.3-2.4-2.5-4.8-3.8-7.1c-2.3-4.8-5.5-9-8.2-13.2c-11.7-16.7-26.3-28.8-40.2-37.2c-13.9-8.6-27.6-12.9-38.8-15.8
			c-2.8-0.6-5.5-1.2-8-1.8c-2.5-0.5-4.8-0.6-7-0.9c-2.2-0.3-4.1-0.5-6-0.7c-1.8-0.3-3.8-0.1-5.4-0.2c-6.6-0.2-10.1-0.2-10.1-0.2
			L288.4,157.7z"/>
	</g>
	<g>
		<circle fill="#FFFFFF" cx="307.9" cy="307.7" r="92.7"/>
		<path fill="#4B676D" d="M403.5,307.8c0,0-0.2,2.3-0.6,6.5c-0.1,1.1-0.1,2.2-0.4,3.6c-0.2,1.3-0.5,2.8-0.8,4.4
			c-0.3,1.6-0.6,3.3-1,5.1c-0.5,1.7-1,3.6-1.6,5.5c-2.5,7.7-6.1,17-12.5,26.3c-6.2,9.3-14.6,19.2-26,27.3
			c-11.4,8-25.7,14.2-41.8,16.8c-2,0.4-4,0.4-6.1,0.6l-3.1,0.3l-1.6,0.1l-1.7,0c-4-0.1-8,0.2-12.4-0.5c-8.9-0.7-17.3-3-25.9-6.2
			c-8.5-3.2-16.5-8-24.1-13.6c-7.5-5.8-14.2-12.8-20-20.6c-5.7-7.9-10.2-16.8-13.5-26.2c-3.1-9.5-4.9-19.5-5.3-29.5l0.2-7.3
			c0.1-1.2,0-2.2,0.2-3.5l0.5-3.9c0.4-2.6,0.6-5.4,1.2-7.8l1.7-7.4c2.9-9.7,7.1-19,12.6-27.4c5.6-8.3,12.1-15.9,19.7-22.2
			c1.9-1.6,3.9-3,5.9-4.4l3-2.2l3.1-1.9c2.1-1.2,4.1-2.6,6.3-3.6c2.2-1.1,4.4-2,6.5-3c8.8-3.5,17.9-6.3,27-7.1
			c4.5-0.7,9-0.6,13.5-0.7l0.8,0l0.4,0l0.2,0l0.7,0l1.5,0.1l3,0.3c2,0.2,3.8,0.2,6,0.6c4.4,0.9,9,1.5,12.8,2.9c2,0.6,4,1.2,5.9,1.8
			c1.9,0.7,3.8,1.5,5.6,2.3c7.4,3,14,7.2,20,11.5c11.8,8.8,20.4,19.4,26.3,29.4c6.1,10,9.1,19.9,11.1,27.9c0.4,2,0.9,3.9,1.2,5.7
			c0.3,1.8,0.4,3.5,0.7,5.1c0.2,1.6,0.3,3.1,0.5,4.4c0.1,1.3,0.1,2.6,0.1,3.7c0.1,4.4,0.1,6.7,0.1,6.7L403.5,307.8z M397.8,307.7
			c0,0-0.2-2.2-0.6-6.3c-0.1-1-0.1-2.2-0.4-3.4c-0.2-1.2-0.5-2.6-0.8-4.1c-0.3-1.5-0.5-3-1-4.7c-0.5-1.6-1-3.4-1.6-5.2
			c-2.3-7.2-6.1-15.8-12.4-24.3c-6.2-8.4-14.8-16.8-25.7-23.2c-5.5-3-11.4-5.9-17.9-7.8c-1.6-0.5-3.2-1-4.8-1.5
			c-1.7-0.3-3.3-0.7-5-1c-3.4-0.9-6.6-0.8-9.9-1.3c-0.8-0.1-1.8-0.1-2.8-0.1l-3,0l-3,0l-1.5,0c-0.5,0,0.5,0,0.3,0l-0.2,0l-0.3,0
			l-0.7,0.1c-3.6,0.4-7.2,0.5-10.8,1.4c-7.2,1.1-14.3,3.6-21.1,6.7c-6.8,3.1-13.3,7.4-19.2,12.2c-5.8,5.1-11.1,10.9-15.7,17.3
			c-4.4,6.5-7.8,13.8-10.4,21.4l-1.6,5.8c-0.3,1-0.5,1.9-0.7,2.8l-0.5,2.8l-0.5,2.8c-0.2,0.9-0.2,2.2-0.3,3.3l-0.3,3.4l-0.1,1.7
			l-0.1,0.9l0,0.4l0,0.2c0-0.2,0,0.7,0-0.3c0.1,8.1,0.6,16.3,2.7,24.2c2.2,7.8,5.3,15.5,9.5,22.5c4.3,6.9,9.4,13.4,15.4,19
			c6.1,5.4,12.6,10.2,19.8,13.8c7.1,3.4,14.8,6.3,22.3,7.6c3.6,0.9,7.8,1.2,11.8,1.5l1.3,0.1l1.4,0l2.9,0c1.9-0.1,3.8,0.1,5.7-0.2
			c3.7-0.5,7.5-0.6,11-1.6c1.8-0.4,3.6-0.8,5.4-1.1c1.7-0.5,3.4-1.1,5.1-1.6c6.8-2.2,13-5.5,18.7-8.8c11.3-7.1,20.1-16.2,26.1-25.3
			c6-9.1,9.2-18.3,11-25.8c0.4-1.9,0.8-3.7,1.2-5.4c0.3-1.7,0.4-3.3,0.6-4.8c0.2-1.5,0.3-2.8,0.5-4.1c0.1-1.2,0.1-2.5,0.1-3.5
			c0.1-4.3,0.1-6.5,0.1-6.5L397.8,307.7z"/>
	</g>
</g>
</svg>
